<svg width="202" height="253" xmlns="http://www.w3.org/2000/svg" xmlns:xlink="http://www.w3.org/1999/xlink" overflow="hidden"><defs><clipPath id="clip0"><path d="M183 943 385 943 385 1196 183 1196Z" fill-rule="evenodd" clip-rule="evenodd"/></clipPath></defs><g clip-path="url(#clip0)" transform="translate(-183 -943)"><path d="M383 953C383 948 379 944 374 944L194 944C189 944 185 948 185 953L185 1183C185 1188 189 1192 194 1192L374 1192C379 1192 383 1188 383 1183L383 953Z" stroke="#000000" stroke-width="2" stroke-miterlimit="8" fill="#FFFFFF" fill-rule="evenodd"/><path d="M312.457 977.002C311.437 977.418 309.905 977.772 307.864 978.064 306.707 978.231 305.89 978.418 305.41 978.627 304.931 978.835 304.562 979.14 304.301 979.541 304.041 979.942 303.91 980.387 303.91 980.877 303.91 981.627 304.194 982.252 304.762 982.752 305.33 983.252 306.16 983.502 307.254 983.502 308.338 983.502 309.301 983.265 310.145 982.791 310.989 982.317 311.608 981.668 312.004 980.845 312.306 980.21 312.457 979.272 312.457 978.033ZM251.707 970.674C250.416 970.674 249.33 971.106 248.45 971.97 247.569 972.835 247.082 973.991 246.989 975.439L256.254 975.439C256.129 974.043 255.775 972.996 255.192 972.299 254.296 971.215 253.134 970.674 251.707 970.674ZM233.707 970.674C232.416 970.674 231.33 971.106 230.45 971.97 229.569 972.835 229.082 973.991 228.989 975.439L238.254 975.439C238.129 974.043 237.775 972.996 237.192 972.299 236.296 971.215 235.134 970.674 233.707 970.674ZM308.879 968.361C310.296 968.361 311.447 968.528 312.332 968.861 313.218 969.194 313.869 969.614 314.285 970.119 314.702 970.624 314.994 971.262 315.16 972.033 315.254 972.512 315.301 973.377 315.301 974.627L315.301 978.377C315.301 980.991 315.361 982.645 315.481 983.338 315.601 984.03 315.838 984.694 316.192 985.33L313.254 985.33C312.963 984.746 312.775 984.064 312.692 983.283 311.65 984.168 310.647 984.793 309.684 985.158 308.72 985.522 307.687 985.705 306.582 985.705 304.759 985.705 303.358 985.259 302.379 984.369 301.4 983.478 300.91 982.34 300.91 980.955 300.91 980.142 301.095 979.4 301.465 978.728 301.835 978.056 302.319 977.517 302.918 977.111 303.517 976.705 304.192 976.397 304.942 976.189 305.494 976.043 306.327 975.903 307.442 975.767 309.713 975.496 311.384 975.174 312.457 974.799 312.468 974.413 312.473 974.168 312.473 974.064 312.473 972.918 312.207 972.111 311.676 971.642 310.957 971.007 309.89 970.689 308.473 970.689 307.15 970.689 306.173 970.921 305.543 971.384 304.913 971.848 304.447 972.668 304.145 973.845L301.395 973.47C301.645 972.293 302.056 971.343 302.629 970.619 303.202 969.895 304.03 969.338 305.114 968.947 306.197 968.556 307.452 968.361 308.879 968.361ZM251.676 968.361C253.895 968.361 255.707 969.116 257.114 970.627 258.52 972.137 259.223 974.262 259.223 977.002 259.223 977.168 259.218 977.418 259.207 977.752L246.832 977.752C246.937 979.575 247.452 980.97 248.379 981.939 249.306 982.908 250.463 983.392 251.848 983.392 252.879 983.392 253.759 983.121 254.489 982.58 255.218 982.038 255.796 981.174 256.223 979.986L259.129 980.345C258.671 982.043 257.822 983.361 256.582 984.299 255.343 985.236 253.759 985.705 251.832 985.705 249.405 985.705 247.481 984.957 246.059 983.463 244.637 981.968 243.926 979.871 243.926 977.174 243.926 974.382 244.645 972.215 246.082 970.674 247.52 969.132 249.384 968.361 251.676 968.361ZM233.676 968.361C235.895 968.361 237.707 969.116 239.114 970.627 240.52 972.137 241.223 974.262 241.223 977.002 241.223 977.168 241.218 977.418 241.207 977.752L228.832 977.752C228.937 979.575 229.452 980.97 230.379 981.939 231.306 982.908 232.463 983.392 233.848 983.392 234.879 983.392 235.759 983.121 236.489 982.58 237.218 982.038 237.796 981.174 238.223 979.986L241.129 980.345C240.671 982.043 239.822 983.361 238.582 984.299 237.343 985.236 235.759 985.705 233.832 985.705 231.405 985.705 229.481 984.957 228.059 983.463 226.637 981.968 225.926 979.871 225.926 977.174 225.926 974.382 226.645 972.215 228.082 970.674 229.52 969.132 231.384 968.361 233.676 968.361ZM222.957 968.361C223.905 968.361 224.869 968.663 225.848 969.267L224.879 971.877C224.192 971.47 223.504 971.267 222.817 971.267 222.202 971.267 221.65 971.452 221.16 971.822 220.671 972.192 220.322 972.705 220.114 973.361 219.801 974.361 219.645 975.455 219.645 976.642L219.645 985.33 216.832 985.33 216.832 968.736 219.364 968.736 219.364 971.252C220.009 970.075 220.606 969.299 221.153 968.924 221.7 968.549 222.301 968.361 222.957 968.361ZM333.176 962.939 333.176 968.736 336.004 968.736 336.004 970.924 333.176 970.924 333.176 980.627C333.176 981.429 333.226 981.944 333.325 982.174 333.423 982.403 333.585 982.585 333.809 982.72 334.033 982.856 334.353 982.924 334.77 982.924 335.082 982.924 335.494 982.887 336.004 982.814L336.41 985.299C335.619 985.465 334.91 985.549 334.285 985.549 333.265 985.549 332.473 985.387 331.91 985.064 331.348 984.741 330.952 984.317 330.723 983.791 330.494 983.265 330.379 982.158 330.379 980.47L330.379 970.924 328.317 970.924 328.317 970.698 327.879 971.877C327.192 971.47 326.504 971.267 325.817 971.267 325.202 971.267 324.65 971.452 324.16 971.822 323.671 972.192 323.322 972.705 323.114 973.361 322.801 974.361 322.645 975.455 322.645 976.642L322.645 985.33 319.832 985.33 319.832 968.736 322.364 968.736 322.364 971.252C323.009 970.075 323.606 969.299 324.153 968.924 324.7 968.549 325.301 968.361 325.957 968.361 326.431 968.361 326.909 968.437 327.391 968.588L328.317 969.019 328.317 968.736 330.379 968.736 330.379 964.627ZM296.176 962.939 296.176 968.736 299.004 968.736 299.004 970.924 296.176 970.924 296.176 980.627C296.176 981.429 296.226 981.944 296.325 982.174 296.423 982.403 296.585 982.585 296.809 982.72 297.033 982.856 297.353 982.924 297.77 982.924 298.082 982.924 298.494 982.887 299.004 982.814L299.41 985.299C298.619 985.465 297.91 985.549 297.285 985.549 296.265 985.549 295.473 985.387 294.91 985.064 294.348 984.741 293.952 984.317 293.723 983.791 293.494 983.265 293.379 982.158 293.379 980.47L293.379 970.924 291.317 970.924 291.317 968.736 293.379 968.736 293.379 964.627ZM197.379 962.424 212.832 962.424 212.832 965.127 200.41 965.127 200.41 972.22 211.16 972.22 211.16 974.924 200.41 974.924 200.41 985.33 197.379 985.33ZM280.129 962.033C281.827 962.033 283.325 962.306 284.621 962.853 285.918 963.4 286.916 964.205 287.614 965.267 288.312 966.33 288.687 967.533 288.739 968.877L285.832 969.095C285.676 967.647 285.147 966.554 284.246 965.814 283.345 965.075 282.015 964.705 280.254 964.705 278.421 964.705 277.085 965.041 276.246 965.713 275.408 966.384 274.989 967.194 274.989 968.142 274.989 968.965 275.285 969.642 275.879 970.174 276.463 970.705 277.986 971.249 280.45 971.806 282.913 972.364 284.603 972.851 285.52 973.267 286.853 973.882 287.838 974.661 288.473 975.603 289.108 976.546 289.426 977.632 289.426 978.861 289.426 980.08 289.077 981.228 288.379 982.306 287.681 983.384 286.679 984.223 285.371 984.822 284.064 985.421 282.593 985.72 280.957 985.72 278.884 985.72 277.147 985.418 275.746 984.814 274.345 984.21 273.246 983.301 272.45 982.088 271.653 980.874 271.233 979.502 271.192 977.97L274.051 977.72C274.187 978.866 274.502 979.806 274.996 980.541 275.491 981.275 276.259 981.869 277.301 982.322 278.343 982.775 279.515 983.002 280.817 983.002 281.973 983.002 282.994 982.83 283.879 982.486 284.765 982.142 285.423 981.671 285.856 981.072 286.288 980.473 286.504 979.819 286.504 979.111 286.504 978.392 286.296 977.765 285.879 977.228 285.463 976.692 284.775 976.241 283.817 975.877 283.202 975.637 281.843 975.265 279.739 974.759 277.634 974.254 276.16 973.778 275.317 973.33 274.223 972.757 273.408 972.046 272.871 971.197 272.335 970.348 272.067 969.397 272.067 968.345 272.067 967.189 272.395 966.108 273.051 965.103 273.707 964.098 274.666 963.335 275.926 962.814 277.187 962.293 278.588 962.033 280.129 962.033Z" stroke="#000000" stroke-linejoin="round" stroke-miterlimit="10" fill-rule="evenodd"/><text fill="#000000" fill-opacity="0" font-family="Arial,Arial_MSFontService,sans-serif" font-size="23.6875" x="197.379" y="982.759">Free Start</text><path d="M255.732 1167.75C256.752 1167.33 258.284 1166.98 260.325 1166.69 261.482 1166.52 262.299 1166.33 262.779 1166.12 263.258 1165.92 263.627 1165.61 263.888 1165.21 264.148 1164.81 264.279 1164.36 264.279 1163.87 264.279 1163.12 263.995 1162.5 263.427 1162 262.859 1161.5 262.029 1161.25 260.935 1161.25 259.851 1161.25 258.888 1161.49 258.044 1161.96 257.2 1162.43 256.581 1163.08 256.185 1163.9 255.883 1164.54 255.732 1165.48 255.732 1166.72ZM316.482 1174.08C317.773 1174.08 318.859 1173.64 319.739 1172.78 320.62 1171.92 321.107 1170.76 321.2 1169.31L311.935 1169.31C312.06 1170.71 312.414 1171.75 312.997 1172.45 313.893 1173.54 315.055 1174.08 316.482 1174.08ZM334.482 1174.08C335.773 1174.08 336.859 1173.64 337.739 1172.78 338.62 1171.92 339.107 1170.76 339.2 1169.31L329.935 1169.31C330.06 1170.71 330.414 1171.75 330.997 1172.45 331.893 1173.54 333.055 1174.08 334.482 1174.08ZM259.31 1176.39C257.893 1176.39 256.742 1176.22 255.857 1175.89 254.971 1175.56 254.32 1175.14 253.904 1174.63 253.487 1174.13 253.195 1173.49 253.029 1172.72 252.935 1172.24 252.888 1171.37 252.888 1170.12L252.888 1166.37C252.888 1163.76 252.828 1162.11 252.708 1161.41 252.588 1160.72 252.351 1160.06 251.997 1159.42L254.935 1159.42C255.226 1160 255.414 1160.69 255.497 1161.47 256.539 1160.58 257.542 1159.96 258.505 1159.59 259.469 1159.23 260.502 1159.05 261.607 1159.05 263.43 1159.05 264.831 1159.49 265.81 1160.38 266.789 1161.27 267.279 1162.41 267.279 1163.8 267.279 1164.61 267.094 1165.35 266.724 1166.02 266.354 1166.69 265.87 1167.23 265.271 1167.64 264.672 1168.05 263.997 1168.35 263.247 1168.56 262.695 1168.71 261.862 1168.85 260.747 1168.98 258.476 1169.25 256.805 1169.58 255.732 1169.95 255.721 1170.34 255.716 1170.58 255.716 1170.69 255.716 1171.83 255.982 1172.64 256.513 1173.11 257.232 1173.74 258.299 1174.06 259.716 1174.06 261.039 1174.06 262.015 1173.83 262.646 1173.37 263.276 1172.9 263.742 1172.08 264.044 1170.9L266.794 1171.28C266.544 1172.46 266.133 1173.41 265.56 1174.13 264.987 1174.86 264.159 1175.41 263.075 1175.8 261.992 1176.19 260.737 1176.39 259.31 1176.39ZM316.513 1176.39C314.294 1176.39 312.482 1175.63 311.075 1174.12 309.669 1172.61 308.966 1170.49 308.966 1167.75 308.966 1167.58 308.971 1167.33 308.982 1167L321.357 1167C321.252 1165.18 320.737 1163.78 319.81 1162.81 318.883 1161.84 317.726 1161.36 316.341 1161.36 315.31 1161.36 314.43 1161.63 313.7 1162.17 312.971 1162.71 312.393 1163.58 311.966 1164.76L309.06 1164.4C309.518 1162.71 310.367 1161.39 311.607 1160.45 312.846 1159.51 314.43 1159.05 316.357 1159.05 318.784 1159.05 320.708 1159.79 322.13 1161.29 323.552 1162.78 324.263 1164.88 324.263 1167.58 324.263 1170.37 323.544 1172.54 322.107 1174.08 320.669 1175.62 318.805 1176.39 316.513 1176.39ZM334.513 1176.39C332.294 1176.39 330.482 1175.63 329.075 1174.12 327.669 1172.61 326.966 1170.49 326.966 1167.75 326.966 1167.58 326.971 1167.33 326.982 1167L339.357 1167C339.252 1165.18 338.737 1163.78 337.81 1162.81 336.883 1161.84 335.726 1161.36 334.341 1161.36 333.31 1161.36 332.43 1161.63 331.7 1162.17 330.971 1162.71 330.393 1163.58 329.966 1164.76L327.06 1164.4C327.518 1162.71 328.367 1161.39 329.607 1160.45 330.846 1159.51 332.43 1159.05 334.357 1159.05 336.784 1159.05 338.708 1159.79 340.13 1161.29 341.552 1162.78 342.263 1164.88 342.263 1167.58 342.263 1170.37 341.544 1172.54 340.107 1174.08 338.669 1175.62 336.805 1176.39 334.513 1176.39ZM345.232 1176.39C344.284 1176.39 343.32 1176.09 342.341 1175.48L343.31 1172.87C343.997 1173.28 344.685 1173.48 345.372 1173.48 345.987 1173.48 346.539 1173.3 347.029 1172.93 347.518 1172.56 347.867 1172.05 348.075 1171.39 348.388 1170.39 348.544 1169.3 348.544 1168.11L348.544 1159.42 351.357 1159.42 351.357 1176.01 348.825 1176.01 348.825 1173.5C348.18 1174.68 347.583 1175.45 347.036 1175.83 346.489 1176.2 345.888 1176.39 345.232 1176.39ZM235.013 1181.81 235.013 1176.01 232.185 1176.01 232.185 1173.83 235.013 1173.83 235.013 1164.12C235.013 1163.32 234.963 1162.81 234.864 1162.58 234.765 1162.35 234.604 1162.17 234.38 1162.03 234.156 1161.89 233.836 1161.83 233.419 1161.83 233.107 1161.83 232.695 1161.86 232.185 1161.94L231.779 1159.45C232.57 1159.29 233.279 1159.2 233.904 1159.2 234.924 1159.2 235.716 1159.36 236.279 1159.69 236.841 1160.01 237.237 1160.43 237.466 1160.96 237.695 1161.49 237.81 1162.59 237.81 1164.28L237.81 1173.83 239.872 1173.83 239.872 1174.05 240.31 1172.87C240.997 1173.28 241.685 1173.48 242.372 1173.48 242.987 1173.48 243.539 1173.3 244.029 1172.93 244.518 1172.56 244.867 1172.05 245.075 1171.39 245.388 1170.39 245.544 1169.3 245.544 1168.11L245.544 1159.42 248.357 1159.42 248.357 1176.01 245.825 1176.01 245.825 1173.5C245.18 1174.68 244.583 1175.45 244.036 1175.83 243.489 1176.2 242.888 1176.39 242.232 1176.39 241.758 1176.39 241.28 1176.31 240.798 1176.16L239.872 1175.73 239.872 1176.01 237.81 1176.01 237.81 1180.12ZM272.013 1181.81 272.013 1176.01 269.185 1176.01 269.185 1173.83 272.013 1173.83 272.013 1164.12C272.013 1163.32 271.963 1162.81 271.864 1162.58 271.765 1162.35 271.604 1162.17 271.38 1162.03 271.156 1161.89 270.836 1161.83 270.419 1161.83 270.107 1161.83 269.695 1161.86 269.185 1161.94L268.779 1159.45C269.57 1159.29 270.279 1159.2 270.904 1159.2 271.924 1159.2 272.716 1159.36 273.279 1159.69 273.841 1160.01 274.237 1160.43 274.466 1160.96 274.695 1161.49 274.81 1162.59 274.81 1164.28L274.81 1173.83 276.872 1173.83 276.872 1176.01 274.81 1176.01 274.81 1180.12ZM370.81 1182.33 355.357 1182.33 355.357 1179.62 367.779 1179.62 367.779 1172.53 357.029 1172.53 357.029 1169.83 367.779 1169.83 367.779 1159.42 370.81 1159.42ZM288.06 1182.72C286.362 1182.72 284.864 1182.44 283.568 1181.9 282.271 1181.35 281.273 1180.55 280.575 1179.48 279.877 1178.42 279.502 1177.22 279.45 1175.87L282.357 1175.65C282.513 1177.1 283.042 1178.2 283.943 1178.94 284.844 1179.68 286.174 1180.05 287.935 1180.05 289.768 1180.05 291.104 1179.71 291.943 1179.04 292.781 1178.37 293.2 1177.56 293.2 1176.61 293.2 1175.79 292.904 1175.11 292.31 1174.58 291.726 1174.05 290.203 1173.5 287.739 1172.94 285.276 1172.39 283.586 1171.9 282.669 1171.48 281.336 1170.87 280.351 1170.09 279.716 1169.15 279.081 1168.2 278.763 1167.12 278.763 1165.89 278.763 1164.67 279.112 1163.52 279.81 1162.44 280.508 1161.37 281.51 1160.53 282.818 1159.93 284.125 1159.33 285.596 1159.03 287.232 1159.03 289.305 1159.03 291.042 1159.33 292.443 1159.94 293.844 1160.54 294.943 1161.45 295.739 1162.66 296.536 1163.88 296.956 1165.25 296.997 1166.78L294.138 1167.03C294.002 1165.88 293.687 1164.94 293.193 1164.21 292.698 1163.48 291.93 1162.88 290.888 1162.43 289.846 1161.98 288.674 1161.75 287.372 1161.75 286.216 1161.75 285.195 1161.92 284.31 1162.26 283.424 1162.61 282.765 1163.08 282.333 1163.68 281.901 1164.28 281.685 1164.93 281.685 1165.64 281.685 1166.36 281.893 1166.99 282.31 1167.52 282.726 1168.06 283.414 1168.51 284.372 1168.87 284.987 1169.11 286.346 1169.49 288.45 1169.99 290.555 1170.5 292.029 1170.97 292.872 1171.42 293.966 1171.99 294.781 1172.7 295.318 1173.55 295.854 1174.4 296.122 1175.35 296.122 1176.4 296.122 1177.56 295.794 1178.64 295.138 1179.65 294.482 1180.65 293.523 1181.42 292.263 1181.94 291.002 1182.46 289.601 1182.72 288.06 1182.72Z" stroke="#000000" stroke-linejoin="round" stroke-miterlimit="10" fill-rule="evenodd"/><text fill="#000000" fill-opacity="0" font-family="Arial,Arial_MSFontService,sans-serif" font-size="23.6875" x="231.779" y="1179.76">Free Start</text><path d="M275.5 1064.5C263.5 1058.5 257.5 1026.5 285.5 1026.5 313.5 1026.5 307.5 1058.5 295.5 1064.5 303.5 1058.5 329.5 1050.5 329.5 1078.5 329.5 1106.5 293.5 1104.5 291.5 1082.5L287.5 1082.5C287.5 1082.5 289.5 1104.5 295.5 1114.5L275.5 1114.5C281.5 1104.5 283.5 1082.5 283.5 1082.5L279.5 1082.5C277.5 1104.5 239.5 1106.5 239.5 1078.5 239.5 1054.5 267.5 1058.5 275.5 1064.5Z" stroke="#000000" stroke-miterlimit="8" fill="#A9D18E" fill-rule="evenodd"/></g></svg>