<svg xmlns="http://www.w3.org/2000/svg" viewBox="0 0 512 512" style="height: 120px; width: 120px;"><path d="M0 0h512v512H0z" fill="#000" fill-opacity="1"></path><g class="" transform="translate(0,0)" style="touch-action: none;"><path d="M280.693 64.92c-5.164-.024-11.614 1.387-18.687 6.205-55.605 39.039-112.172 76.494-169.584 112.826-10.2 6.621-9.75 16.6 1.017 22.27l128.75 67.761c5.384 2.835 22.414 2.056 32.614-4.564l169.834-110.232c10.199-6.622 9.75-16.598-1.014-22.268-44.669-23.51-85.78-45.116-130.578-68.865 0 0-4.803-3.099-12.352-3.133zm6.416 27.547l-13.504 69.37 113.612-14.685-2.84 15.22-113.773 14.878-13.672 70.232-25.643 3.53 13.838-70.43-117.033 15.305 3.205-15.655 116.865-15.105 13.668-69.565 25.277-3.095zm41.246 146.324l-65.74 42.674c-14.563 9.45-37.135 10.479-52.5 2.389L175.29 265.53l-87.236 41.375c-10.983 5.203-10.69 12.999.66 17.354l121.242 46.617v.006c11.35 4.368 29.494 3.66 40.477-1.535l166.992-79.196c10.985-5.194 10.68-12.996-.664-17.353l-88.405-34.008zm93.614 65.094l-165.393 78.44c-14.544 6.88-36.751 7.734-51.775 1.958L83.81 337.76c-6.4 4.962-4.722 11.122 4.902 14.812l121.242 46.625h.002c11.349 4.363 29.494 3.663 40.477-1.533l166.992-79.193c8.922-4.218 10.398-10.162 4.543-14.586zm0 28.318l-165.393 78.44c-14.544 6.874-36.751 7.729-51.775 1.959L83.81 366.078c-6.4 4.963-4.722 11.125 4.902 14.815l121.242 46.625h.002c11.349 4.362 29.494 3.66 40.477-1.534l166.992-79.2c8.922-4.22 10.398-10.165 4.543-14.58zm-.002 28.32l-165.393 78.434c-14.544 6.88-36.75 7.735-51.773 1.959L83.81 394.4c-6.4 4.96-4.721 11.119 4.902 14.809l121.242 46.623v-.002c11.35 4.37 29.494 3.663 40.477-1.533l166.994-79.193c8.922-4.22 10.396-10.164 4.54-14.58zm-3.871 30.153l-161.522 76.6c-14.544 6.88-36.75 7.737-51.773 1.96L87.924 424.293c-10.853 5.201-10.52 12.949.789 17.289l121.24 46.62h.002c11.35 4.366 29.492 3.66 40.475-1.534l166.996-79.193c10.534-4.98 10.684-12.363.67-16.8z" fill="#fff" fill-opacity="1"></path></g><g class="" transform="translate(256,256)" style="touch-action: none;"><g><circle cx="128" cy="128" r="128" fill="#000" fill-opacity="1"></circle><circle stroke="#fff" stroke-opacity="1" fill="#000" fill-opacity="1" stroke-width="18" cx="128" cy="128" r="101"></circle><path fill="#fff" fill-opacity="1" d="M99.016 83.18c0 27.973 28.984 32.635 28.984 55.946 0 9.325-9.661 23.312-24.153 23.312-14.492 0-24.153-13.987-14.492-37.298-14.491 9.324-19.322 18.649-19.322 27.973 0 23.312 24.153 46.623 57.967 46.623 33.813 0 57.966-13.987 57.966-41.96.216-41.378-49.4-55.2-62.797-74.597-9.66-13.987-4.83-23.311 4.83-32.636-19.321 4.663-28.983 17.717-28.983 32.636z"></path></g></g></svg>