<svg xmlns="http://www.w3.org/2000/svg" viewBox="0 0 512 512" style="height: 120px; width: 120px;"><path d="M0 0h512v512H0z" fill="#000" fill-opacity="1"></path><g class="" transform="translate(0,0)" style="touch-action: none;"><path d="M257.75 16.03A60 60 0 0 0 196 76a60 60 0 0 0 120 0 60 60 0 0 0-58.25-59.97zM250.72 166c-24.72.11-24.72 1.875-24.72 30v210h-60l90 90 90-90h-60V196c0-30 0-30-30-30-1.875 0-3.633-.007-5.28 0z" fill="#fff" fill-opacity="1"></path></g><g class="" transform="translate(158,-10)" style="touch-action: none;"><g transform="translate(9.6, 9.6) scale(0.7, 0.7) rotate(0, 128, 128)"><circle cx="128" cy="128" r="128" fill="#000000" fill-opacity="1"></circle><circle stroke="#fff" stroke-opacity="1" fill="#000000" fill-opacity="1" stroke-width="18" cx="128" cy="128" r="101"></circle><path fill="#fff" fill-opacity="1" d="M96 80a16 16 0 0 0-16 16 16 16 0 0 0 16 16 16 16 0 0 0 16-16 16 16 0 0 0-16-16zm64 0a16 16 0 0 0-16 16 16 16 0 0 0 16 16 16 16 0 0 0 16-16 16 16 0 0 0-16-16zm-88.512 59.008l-14.976 9.984C74.048 175.296 101 189 128 189s53.952-13.704 71.488-40.008l-14.976-9.984C170.048 160.704 149 171 128 171s-42.048-10.296-56.512-31.992z"></path></g></g></svg>